<svg version="1.1" id="Layer_1" xmlns="http://www.w3.org/2000/svg" x="0" y="0" viewBox="0 0 152 69" xml:space="preserve"><path fill="#CF9D6C" d="M59.4 14.4c.5.6 1.1 1.2 1.6 1.8.5.6 1 1.2 1.6 1.8.4.5.7.9 1.1 1.4.4-.5.9-1.1 1.3-1.6 1.6-2 3.3-4 5-6 .8-1 1.7-2 2.5-3L75 5.9l1-1.2 1.1 1.2 2.6 2.9 2.6 3c.9 1 1.7 2 2.6 3 .9 1 1.7 2 2.5 3l1.1 1.3c.3-.3.5-.7.8-1 1-1.2 2-2.5 3.1-3.7l1.5-1.7C91.4 5.3 84.4 0 76.1 0c-8.4 0-15.5 5.5-17.9 13.1l1.2 1.3z"/><path fill="#423A36" d="M107.8 23.5c-.2-.3-.5-.6-.7-1l-.7-1c-.5-.6-1-1.3-1.5-1.9-.5-.6-1-1.3-1.5-1.9-.5-.6-1-1.2-1.6-1.9-.5-.6-1.1-1.2-1.6-1.9l-1.6-1.8-1.6-1.8-.7-.7-.6.7-1.7 2-1.6 1.8c-1 1.2-2.1 2.5-3.1 3.7-.3.3-.5.7-.8 1l-1.1-1.3c-.8-1-1.7-2-2.5-3-.9-1-1.7-2-2.6-3l-2.6-3-2.6-3L76 4.3l-1 1.2-2.6 3c-.8 1-1.7 2-2.5 3-1.7 2-3.4 4-5 6.1-.4.5-.9 1.1-1.3 1.6-.4-.5-.7-.9-1.1-1.4-.5-.6-1-1.2-1.6-1.9-.5-.6-1.1-1.2-1.6-1.9l-1.6-1.8-1.6-1.8-.7-.7-.6.7-1.6 1.8-1.6 1.8c-1 1.2-2.1 2.5-3.1 3.7-1 1.3-2 2.5-3 3.8-.5.6-1 1.3-1.4 1.9-.5.7-.9 1.3-1.4 2 .6-.5 1.2-1.1 1.8-1.7l1.7-1.7c1.1-1.1 2.3-2.3 3.4-3.5 1.1-1.2 2.2-2.3 3.3-3.5l1.6-1.8.9-1.1 1 1.1 1.7 1.8c.6.6 1.1 1.2 1.7 1.8.6.6 1.1 1.2 1.7 1.8l1.4 1.4c-.1.2-.2.3-.4.5L60 23.7c-.8 1.1-1.6 2.1-2.4 3.1-.8 1.1-1.5 2.1-2.3 3.2 1-.9 1.9-1.8 2.9-2.7.9-.9 1.9-1.8 2.8-2.7l2.8-2.8.9-.9.1-.1c.6-.6 1.1-1.2 1.7-1.8 1.8-1.9 3.6-3.8 5.3-5.7.9-1 1.7-1.9 2.6-2.9l1.5-1.7 1.6 1.8 2.7 2.9c.9 1 1.8 1.9 2.7 2.9.9 1 1.8 1.9 2.8 2.9l1.4 1.4.8.8.6.6 2.8 2.8 1.4 1.4c.5.5 1 .9 1.4 1.4 1 .9 1.9 1.8 2.9 2.7-.8-1.1-1.6-2.2-2.4-3.2-.4-.5-.8-1.1-1.2-1.6l-1.2-1.6-2.2-3.3c-.2-.3-.4-.5-.6-.7.3-.4.7-.7 1-1.1 1.1-1.2 2.2-2.3 3.3-3.5l1.6-1.8.9-1.1 1 1.1 1.7 1.8c.6.6 1.1 1.2 1.7 1.8.6.6 1.1 1.2 1.7 1.8.6.6 1.1 1.2 1.7 1.7.6.6 1.2 1.1 1.7 1.7l.9.8c.3.3.6.6.9.8.6.6 1.2 1.1 1.8 1.6-.5-.7-1-1.3-1.5-2zm-35.4-1.7h3.2v-3.3h-3.2v3.3zm3.9 0h3.2v-3.3h-3.2v3.3zm-3.9 3.9h3.2v-3.3h-3.2v3.3zm3.9 0h3.2v-3.3h-3.2v3.3z"/><g><path fill="#423A36" d="M20.6 62.4c-1-.1-1.6-1.2-1.9-3.2-.2-.8-.3-3.6-.5-6.7l.7-.5c1.1-1 1.7-2.5 1.5-3.2-.2-.6-.9-.8-1.5-.3l-.9.6c-.3-3.6-.4-6.7-.5-7.1-.5-2.7-4.6-4-5.5-1.4-.9 2.5-3.9 8.3-5.7 11.6-1.3 0-2.5-.2-3.4-.7-.9-.5-1.2-1.2-2-.5-.7.6-1.6 3.4-.1 4.2.8.5 1.9.6 3.3.7-.9 1.2-1.9 2.5-2.5 2.4-.9-.1-1.8 2.7.9 2.9 1.7.2 3.7-2.5 5.4-5.6 2.4-.3 4.9-.9 6.9-1.6l.3 5.6c0 2.2.4 6.1 3.1 6.3 3.1.2 3.4-3.4 2.4-3.5zM9.8 51.8c1.3-2.8 2.2-5.6 2.6-6.4.5-1.2 2.1-3.2 2.3-.4l.1 5.5c-1.5.5-3.3 1-5 1.3zm28.7 7c-1.4-1.5 0-8 .2-9.1.3-2.3.1-3.7-2.2-3.7-2.7 0-5.2 7.1-5.6 7.5-.4.4-.6.8-.4-.3.1-.9 1.1-4.8 1.3-5.2.3-.8-.6-2.4-1.9-2.4-2.2 0-4.6 4.1-6.2 9.3-.3-6.7 1.7-10.1.2-10.1s-3.3 2-3.5 8c-.2 4 .2 6.9.2 7.1.5 1.4 1.6 1.6 2.7 1 1.6-.5 3.2-10.9 4.7-11.3.8-.2.7 1.2.3 2.2-.8 1.8-1.6 6.6-.1 7.1 1.1.4 2.3-.2 3.1-1.3 1.2-1.7 2.1-7 3.5-7.5 1.4-.3.7 3.6.3 5-.6 2.6-1 6.1 1.3 6.1 2.1 0 2.8-1.5 2.8-1.8-.1-.3-.4-.2-.7-.6zm5.7-19.1c-.8 0-3.5 1.6-3.8 4.8 4.1-.4 4.8-4.8 3.8-4.8zM43 46.6c.3-.3 0-1.2-1.2-1.2-2.6 0-3 6.3-2.8 10.9.2 3 .9 4.9 2.5 4.9s2-1.2 1.7-1.6c-1.7-1.9-1.5-10.8-.2-13zm25 8.8c-.1-.7-.1-1.3-.1-2 .5-.5.9-1.2.9-1.5 0-.5-.3-.7-.8-.5.3-3.9 1.1-7.2 2.4-10.3.3-.8.4-1.5-.9-1.7-.5-.1-1.8 0-2.6 1.8-.7 1.3-1.8 6-2.2 11-1.2.2-2.6.3-3.9.3.3-3.4.6-7.7.5-11.1 0-.5-1-2.2-2.9-2.2-2.5 0-5.2 4-4.4 6.3.9 2.7 3.3-1.2 1.9-1.8.3-.7 1.2-1.6 2.1-1.6.3.4.4 5.4-.2 10-.9-.2-1.5-.5-2.1-1-.6-.5-.8-1-1.4-.6-.6.3-1.6 2.1-.7 3 .5.6 2 1 3.7 1.3-.7 2.7-1.6 4.7-3.3 4.7-2.7 0-2.7-3.7-2.2-4.7.5-1.1-1.8-1.8-2.8.2-1 2-.1 7.8 5 7.8 4.5 0 5.5-4.4 6.3-7.8 1.6 0 2.9-.1 4.1-.3-.2 3.6.2 7 1.3 9.1.7 1 1.1 1.3 1.9 1.3 1.3 0 2.1-1.2 2.2-1.6.1-.2 0-.2-.1-.4-.3-.6-1.4-1.8-1.7-7.7zm42.1-1.5c-.3.4-2.4 4.3-4.8 4.3-2 0-2.2-2.2-2.2-2.9 4.4 0 7.9-5.8 7.3-8-.7-2.2-2.6-2.4-5.6-.8-3.3 2-5.3 5.9-5.3 10 0 1 .3 1.9.7 2.6-.1-.1-.3-.1-.4-.3-1.4-1.5 0-8 .2-9.1.3-2.3.1-3.7-2.2-3.7-2.7 0-5.2 7.1-5.6 7.5-.4.4-.6.8-.4-.3.1-.9 1.1-4.8 1.3-5.2.3-.8-.6-2.4-1.9-2.4-2.2 0-4.6 4.1-6.2 9.3-.3-6.7 1.7-10.1.2-10.1-1.2 0-2.6 1.3-3.2 4.9-.3-2.2-1.1-4.1-2.7-4.4-2.2-.5-5.8.8-8.5 5.8-2.7 4.9-.5 9.9 2.7 10.4 3.2.6 5.8-1 7.8-5.7.2-.4.3-.9.4-1.3 0 3.1.3 5.3.3 5.5.5 1.4 1.6 1.6 2.7 1 1.6-.5 3.2-10.9 4.7-11.3.8-.2.7 1.2.3 2.2-.8 1.8-1.6 6.6-.1 7.1 1.1.4 2.3-.2 3.1-1.3 1.2-1.7 2.1-7 3.5-7.5 1.4-.3.7 3.6.3 5-.6 2.6-1 6.1 1.3 6.1 2.1 0 2.8-1.5 2.8-1.7.9 1.2 2.4 1.9 3.7 1.9 3.3 0 6-4.1 6.4-6.6-.1-1.3-.4-1.4-.6-1zm-2.3-5.7c1.2 0-.4 4.2-4.8 5.1.9-3.3 3.9-5.1 4.8-5.1zm-28.6 5.2c-.9 2.9-2.4 4.9-4.3 4.9-1.8 0-2.8-2.4-1.9-5 .9-2.6 3.6-5.6 5.3-5.6 1.4-.1 1.6 3.3.9 5.7zm37.6-1.8c1 0 2.3-1.2 2.3-3.1 0-1.9-1.5-3-3.8-3-2.5 0-4.9 2.8-4.9 5.9 0 2.4 1.6 3.9 3.2 4.6 1 .5 1.8.9 1.8 1.5 0 .5-.5 1.4-1.4 1.4-.5 0-1.1-.1-1.8-.5-.9-.5-1.2-1-1.7-1-.4 0-.5.5-.4 1.1.3 1.4 1.6 2.8 3.9 2.8s4.3-1.4 4.3-3.7c0-1.4-1-2.2-2.6-3.3-1.6-1-2.4-1.7-2.4-2.8 0-1.7 1.3-2.5 2.1-2.5 1.3 0 1.3 1.7.9 2-.4.3-.1.6.5.6zm8.2-7.3c7.5-1 6.3-2.7 5.7-2.5-.4.2-2.6.5-5.1.6.3-.9 1.8-3.4-.1-3.4-.8 0-1.5.9-2.1 1.8-.3.5-.7 1.1-1 1.7-3.9.2-5.2 1.1-5.5 1.6-.4.8.1 1.1 1.6.8.6-.1 1.5-.3 3.2-.4-1.2 4.1-2.3 11.1-.2 15 .6 1 1.4 1.5 2.1 1.6.7 0 2.7-1.1 2.1-1.8-2.7-3.5-2-10.3-.7-15zm14 14.5c-.8 0-2.3-1-1.9-2.8.3-1.9.7-3.1.4-3.3-.3-.3-1.3-1.3-1.7-.8-.3.5-2.7 6.5-4.6 6.5-1.1 0-2.1-1.7-1.6-3.9.9-3.8 3.9-5.8 5.4-5.8 2.8 0 2.1 2.5 2.1 2.9.1.4 1.8.5 1.7-.7-.1-.6.8-5.4-3.7-5.4-2.8 0-7.4 2.8-8.5 8.9-.8 4.5 1.4 6.7 3.6 6.7 1.1 0 2.1-.6 2.9-1.3.4-.4.9-.8 1.2-1.3.5 1.3 1 2.5 2.6 2.5 1.5.2 2.8-2.2 2.1-2.2zm13-12.1c-.1-.3-.7-1.3-1.7-1.3-1.1 0-2.4.7-2.9 3.2s-2.5 8-4.1 8.4c-1.5.3-.7-3.5-.4-5.8.3-3.2 0-5.8-2.1-5.8-2 0-1.9 1.8-1.9 2.1 0 .3.9 1.4.8 4.5-.2 2.8-.4 5.8-.3 6.7.1 1 1.2 2.5 2.6 2.5 1.9 0 4.3-2.3 5.5-8.6-.2 1-.2 4.1-1.2 8.6-.6 2.8-1.7 4.7-3.7 4.7-1.4 0-1-1.7-1.6-1.7-.8 0-2 .5-2 2 0 1.4 1.6 3.1 4.4 3.1 3.3 0 5-3.7 5.6-7.6 1.6-9.9 1.8-13.9 3-14.5 0-.3.1-.4 0-.5z"/></g></svg>